<?xml version="1.0" encoding="UTF-8"?>
<svg xmlns="http://www.w3.org/2000/svg" width="50px" height="50px" viewBox="0 0 24 24" version="1.1">
<g id="surface1">

<path style=" stroke:none;fill-rule:nonzero;fill:rgb(2.352941%,5.490196%,4.313726%);fill-opacity:1;" d="M 5.535156 19.160156 C 4.988281 19.285156 4.628906 19.699219 4.210938 20.023438 C 4.128906 20.085938 4.058594 20.167969 3.96875 20.199219 C 3.859375 20.238281 3.730469 20.230469 3.613281 20.242188 C 3.648438 20.128906 3.652344 19.988281 3.722656 19.90625 C 3.886719 19.730469 4.070312 19.566406 4.269531 19.429688 C 4.574219 19.21875 4.898438 19.035156 5.246094 18.820312 C 5.0625 18.539062 4.882812 18.246094 4.6875 17.960938 C 4.660156 17.925781 4.5625 17.910156 4.511719 17.925781 C 3.984375 18.105469 3.457031 18.296875 2.929688 18.484375 C 2.851562 18.511719 2.773438 18.566406 2.699219 18.5625 C 2.589844 18.554688 2.480469 18.5 2.371094 18.46875 C 2.445312 18.378906 2.503906 18.25 2.601562 18.210938 C 3.089844 18.015625 3.585938 17.835938 4.085938 17.667969 C 4.425781 17.554688 4.429688 17.550781 4.277344 17.226562 C 4.175781 17.019531 4.105469 16.796875 4 16.589844 C 3.957031 16.511719 3.863281 16.417969 3.78125 16.40625 C 3.371094 16.339844 2.957031 16.300781 2.542969 16.25 C 2.4375 16.238281 2.324219 16.234375 2.226562 16.195312 C 2.175781 16.171875 2.117188 16.082031 2.125 16.027344 C 2.128906 15.980469 2.214844 15.902344 2.265625 15.902344 C 2.597656 15.898438 2.925781 15.90625 3.257812 15.921875 C 3.421875 15.925781 3.585938 15.953125 3.789062 15.972656 C 3.742188 15.640625 3.675781 15.351562 3.671875 15.058594 C 3.660156 14.5 3.660156 13.941406 3.703125 13.390625 C 3.726562 13.082031 3.726562 12.824219 3.53125 12.550781 C 2.757812 11.476562 2.367188 10.238281 2.066406 8.96875 C 1.875 8.164062 1.78125 7.34375 1.808594 6.515625 C 1.824219 6.066406 2.113281 5.8125 2.507812 6 C 3.121094 6.285156 3.703125 6.640625 4.285156 6.984375 C 4.542969 7.136719 4.769531 7.339844 5.023438 7.496094 C 5.089844 7.539062 5.207031 7.503906 5.316406 7.515625 C 5.351562 7.546875 5.367188 7.574219 5.382812 7.617188 C 5.296875 7.917969 5.386719 8.050781 5.6875 8.101562 C 5.683594 8.101562 5.6875 8.097656 5.6875 8.117188 C 5.765625 8.378906 5.957031 8.519531 6.207031 8.503906 C 6.246094 8.503906 6.269531 8.507812 6.304688 8.519531 C 6.371094 8.503906 6.429688 8.476562 6.488281 8.449219 C 6.488281 8.449219 6.488281 8.449219 6.507812 8.449219 C 6.601562 8.453125 6.671875 8.453125 6.734375 8.46875 C 6.648438 8.589844 6.570312 8.699219 6.492188 8.789062 C 6.472656 8.738281 6.457031 8.710938 6.441406 8.679688 C 6.429688 8.75 6.460938 8.777344 6.492188 8.824219 C 6.566406 8.960938 6.644531 9.074219 6.703125 9.199219 C 6.792969 9.382812 7.074219 9.457031 7.003906 9.734375 C 7 9.753906 7.074219 9.785156 7.101562 9.820312 C 7.210938 9.949219 7.363281 10.070312 7.40625 10.21875 C 7.441406 10.351562 7.445312 10.457031 7.582031 10.546875 C 7.765625 10.664062 7.757812 10.804688 7.617188 10.945312 C 7.585938 10.976562 7.589844 11.039062 7.574219 11.089844 C 7.636719 11.085938 7.699219 11.085938 7.757812 11.074219 C 7.867188 11.054688 7.976562 11.023438 8.085938 11.007812 C 8.175781 10.996094 8.269531 11.011719 8.355469 10.988281 C 8.863281 10.863281 9.371094 10.761719 9.890625 10.910156 C 9.902344 10.914062 9.917969 10.898438 9.90625 10.902344 C 9.929688 10.816406 9.945312 10.746094 9.980469 10.671875 C 10.039062 10.667969 10.078125 10.667969 10.128906 10.683594 C 10.191406 10.703125 10.242188 10.71875 10.292969 10.714844 C 10.859375 10.683594 11.429688 10.648438 11.996094 10.613281 C 12.238281 10.597656 12.476562 10.589844 12.714844 10.5625 C 12.808594 10.550781 12.890625 10.503906 12.992188 10.46875 C 13.015625 10.46875 13.023438 10.46875 13.042969 10.480469 C 13.074219 10.484375 13.101562 10.476562 13.144531 10.464844 C 13.183594 10.460938 13.207031 10.460938 13.246094 10.476562 C 13.339844 10.5 13.421875 10.515625 13.503906 10.515625 C 13.945312 10.5 14.382812 10.46875 14.824219 10.46875 C 15.382812 10.472656 15.945312 10.503906 16.507812 10.511719 C 16.589844 10.515625 16.675781 10.472656 16.78125 10.453125 C 16.851562 10.460938 16.902344 10.464844 16.960938 10.476562 C 16.976562 10.480469 16.992188 10.476562 17.019531 10.464844 C 17.058594 10.457031 17.078125 10.453125 17.109375 10.464844 C 17.332031 10.554688 17.351562 10.371094 17.402344 10.253906 C 17.585938 9.832031 17.503906 9.390625 17.445312 8.957031 C 17.414062 8.75 17.355469 8.523438 17.238281 8.359375 C 17.15625 8.246094 16.949219 8.222656 16.78125 8.160156 C 16.726562 8.15625 16.691406 8.152344 16.652344 8.128906 C 16.566406 8.089844 16.484375 8.070312 16.398438 8.042969 C 16.378906 8.039062 16.367188 8.042969 16.335938 8.050781 C 16.296875 8.050781 16.273438 8.050781 16.242188 8.035156 C 16.171875 8.03125 16.109375 8.039062 16.03125 8.046875 C 15.925781 8.066406 15.839844 8.082031 15.753906 8.101562 C 15.75 8.105469 15.746094 8.105469 15.734375 8.105469 C 15.695312 8.121094 15.671875 8.136719 15.632812 8.160156 C 15.574219 8.179688 15.492188 8.207031 15.488281 8.203125 C 15.4375 8.050781 15.390625 7.898438 15.371094 7.75 C 15.488281 7.742188 15.582031 7.738281 15.691406 7.726562 C 15.734375 7.71875 15.761719 7.71875 15.800781 7.738281 C 15.972656 7.757812 16.132812 7.757812 16.308594 7.75 C 16.328125 7.742188 16.335938 7.742188 16.363281 7.742188 C 16.402344 7.726562 16.421875 7.707031 16.445312 7.691406 C 16.445312 7.695312 16.445312 7.691406 16.464844 7.691406 C 16.503906 7.652344 16.554688 7.601562 16.546875 7.578125 C 16.398438 7.292969 16.308594 6.957031 15.933594 6.839844 C 15.910156 6.820312 15.902344 6.808594 15.898438 6.773438 C 15.65625 6.347656 15.308594 6.050781 14.886719 5.84375 C 14.890625 5.84375 14.882812 5.847656 14.886719 5.828125 C 14.691406 5.558594 14.445312 5.390625 14.117188 5.34375 C 14.105469 5.347656 14.089844 5.347656 14.085938 5.328125 C 13.972656 5.054688 13.738281 5.101562 13.53125 5.085938 C 13.53125 5.085938 13.53125 5.085938 13.53125 5.066406 C 13.320312 4.789062 12.882812 4.753906 12.679688 4.980469 C 12.679688 4.980469 12.679688 4.980469 12.660156 4.980469 C 12.578125 4.945312 12.503906 4.917969 12.449219 4.875 C 12.101562 4.59375 11.707031 4.488281 11.257812 4.535156 C 11.246094 4.535156 11.222656 4.539062 11.210938 4.523438 C 11.03125 4.425781 10.925781 4.492188 10.882812 4.609375 C 10.710938 4.578125 10.5625 4.554688 10.394531 4.527344 C 10.289062 4.546875 10.199219 4.5625 10.097656 4.570312 C 9.960938 4.53125 9.84375 4.496094 9.695312 4.457031 C 9.71875 4.578125 9.730469 4.640625 9.75 4.726562 C 9.601562 4.679688 9.472656 4.652344 9.363281 4.597656 C 9.3125 4.570312 9.292969 4.484375 9.257812 4.425781 C 9.617188 4.34375 9.976562 4.226562 10.34375 4.1875 C 11.757812 4.03125 13.113281 4.242188 14.351562 4.980469 C 15.171875 5.464844 15.878906 6.085938 16.441406 6.859375 C 16.628906 7.117188 16.671875 7.121094 16.867188 6.890625 C 17.492188 6.160156 18.238281 5.578125 19.078125 5.113281 C 19.523438 4.867188 19.863281 5.050781 19.8125 5.554688 C 19.746094 6.246094 19.625 6.933594 19.496094 7.617188 C 19.289062 8.691406 19 9.742188 18.566406 10.75 C 18.53125 10.824219 18.554688 10.949219 18.597656 11.027344 C 19.175781 12.070312 19.425781 13.1875 19.371094 14.378906 C 19.371094 14.417969 19.371094 14.460938 19.375 14.503906 C 19.378906 14.515625 19.394531 14.53125 19.421875 14.570312 C 19.519531 14.542969 19.628906 14.519531 19.734375 14.484375 C 20.207031 14.332031 20.679688 14.175781 21.148438 14.019531 C 21.351562 13.953125 21.527344 13.960938 21.667969 14.246094 C 21.417969 14.328125 21.175781 14.410156 20.933594 14.492188 C 20.453125 14.65625 19.964844 14.8125 19.488281 15 C 19.394531 15.035156 19.324219 15.171875 19.28125 15.277344 C 19.234375 15.398438 19.253906 15.546875 19.207031 15.667969 C 19.113281 15.894531 19.230469 15.929688 19.410156 15.9375 C 19.921875 15.957031 20.433594 15.964844 20.941406 16.003906 C 21.179688 16.023438 21.414062 16.085938 21.644531 16.15625 C 21.710938 16.175781 21.75 16.289062 21.800781 16.359375 C 21.703125 16.402344 21.605469 16.492188 21.515625 16.488281 C 20.828125 16.4375 20.140625 16.363281 19.449219 16.316406 C 19.257812 16.304688 19.058594 16.339844 18.976562 16.597656 C 18.898438 16.613281 18.859375 16.617188 18.820312 16.628906 C 18.640625 16.683594 18.480469 16.742188 18.449219 16.449219 C 18.429688 16.277344 18.097656 16.152344 17.886719 16.203125 C 17.136719 15.675781 16.304688 15.410156 15.410156 15.21875 C 15.359375 15.679688 15.101562 15.96875 14.785156 16.214844 C 14.597656 16.359375 14.386719 16.476562 14.1875 16.613281 C 14.128906 16.660156 14.046875 16.730469 14.042969 16.789062 C 14.027344 17.078125 14.035156 17.363281 14.035156 17.667969 C 14.335938 17.683594 14.601562 17.695312 14.867188 17.710938 C 15.488281 17.75 16.117188 17.792969 16.683594 18.066406 C 16.960938 18.199219 17.210938 18.402344 17.453125 18.597656 C 17.511719 18.648438 17.503906 18.785156 17.523438 18.882812 C 17.421875 18.886719 17.3125 18.910156 17.214844 18.886719 C 17.128906 18.867188 17.054688 18.796875 16.957031 18.738281 C 16.933594 18.804688 16.921875 18.835938 16.910156 18.863281 C 16.746094 19.203125 16.609375 19.558594 16.410156 19.878906 C 16.273438 20.097656 16.136719 20.082031 15.976562 19.867188 C 15.878906 19.738281 15.789062 19.585938 15.753906 19.433594 C 15.667969 19.082031 15.621094 18.722656 15.542969 18.367188 C 15.527344 18.292969 15.460938 18.1875 15.398438 18.171875 C 15.238281 18.128906 15.070312 18.113281 14.90625 18.117188 C 14.546875 18.121094 14.183594 18.121094 13.828125 18.167969 C 13.304688 18.242188 12.785156 18.347656 12.269531 18.457031 C 12.195312 18.472656 12.109375 18.570312 12.085938 18.648438 C 12.042969 18.789062 12.058594 18.949219 12.023438 19.09375 C 11.914062 19.511719 11.816406 19.941406 11.667969 20.347656 C 11.570312 20.621094 11.296875 20.667969 11.089844 20.464844 C 10.945312 20.324219 10.820312 20.148438 10.71875 19.972656 C 10.617188 19.800781 10.550781 19.605469 10.445312 19.371094 C 10.246094 19.574219 10.078125 19.753906 9.898438 19.921875 C 9.773438 20.039062 9.660156 20.230469 9.449219 20.148438 C 9.335938 20.105469 9.417969 19.816406 9.585938 19.617188 C 10.128906 18.980469 10.800781 18.527344 11.585938 18.269531 C 12.191406 18.074219 12.808594 17.925781 13.425781 17.769531 C 13.554688 17.734375 13.640625 17.703125 13.636719 17.550781 C 13.632812 17.347656 13.625 17.144531 13.636719 16.941406 C 13.648438 16.789062 13.570312 16.738281 13.445312 16.703125 C 13.105469 16.609375 12.757812 16.527344 12.429688 16.394531 C 12.039062 16.238281 11.777344 15.949219 11.722656 15.511719 C 11.695312 15.277344 11.640625 15.234375 11.414062 15.335938 C 11.015625 15.519531 10.617188 15.707031 10.226562 15.910156 C 8.894531 16.601562 7.621094 17.378906 6.570312 18.46875 C 6.382812 18.660156 6.246094 18.902344 6.0625 19.121094 C 5.953125 19.105469 5.867188 19.074219 5.777344 19.082031 C 5.695312 19.085938 5.617188 19.132812 5.535156 19.160156 M 5.664062 9.082031 C 5.671875 9.082031 5.679688 9.082031 5.683594 9.085938 C 5.671875 9.074219 5.664062 9.0625 5.628906 9.089844 C 5.597656 9.054688 5.5625 9.023438 5.53125 8.988281 C 5.300781 8.726562 5.09375 8.441406 4.835938 8.203125 C 4.519531 7.90625 4.167969 7.652344 3.828125 7.378906 C 3.667969 7.25 3.503906 7.117188 3.339844 6.992188 C 3.222656 6.90625 3.097656 6.867188 2.980469 6.996094 C 2.859375 7.128906 2.921875 7.238281 3.035156 7.335938 C 3.132812 7.425781 3.234375 7.515625 3.332031 7.605469 C 3.953125 8.171875 4.695312 8.585938 5.179688 9.3125 C 5.519531 9.824219 5.972656 10.253906 6.214844 10.835938 C 6.261719 10.953125 6.367188 11.054688 6.46875 11.128906 C 6.515625 11.167969 6.640625 11.160156 6.691406 11.121094 C 6.746094 11.082031 6.78125 10.980469 6.777344 10.910156 C 6.773438 10.824219 6.734375 10.730469 6.6875 10.65625 C 6.476562 10.3125 6.253906 9.972656 6.035156 9.632812 C 5.910156 9.4375 5.777344 9.25 5.664062 9.082031 M 7.722656 14.644531 C 8.410156 15.140625 9.179688 15.214844 9.972656 15.003906 C 10.625 14.832031 11.167969 14.476562 11.511719 13.871094 C 11.621094 13.679688 11.574219 13.585938 11.355469 13.539062 C 11.160156 13.5 10.964844 13.460938 10.769531 13.4375 C 10.414062 13.390625 10.386719 13.417969 10.25 13.769531 C 10.207031 13.871094 10.128906 13.964844 10.042969 14.035156 C 9.8125 14.230469 9.539062 14.25 9.273438 14.121094 C 9.011719 13.996094 8.90625 13.753906 8.90625 13.464844 C 8.90625 13.355469 8.921875 13.246094 8.757812 13.230469 C 8.226562 13.1875 7.699219 13.136719 7.167969 13.082031 C 6.992188 13.0625 6.929688 13.136719 6.941406 13.3125 C 6.984375 13.867188 7.257812 14.292969 7.722656 14.644531 Z"/>

<!-- rest of original paths retained in the file -->

</g>
</svg>
